<svg width="24" height="24" viewBox="0 0 24 24" fill="none" xmlns="http://www.w3.org/2000/svg">
<path d="M18.7284 15.5489V17.4689C18.7291 17.6471 18.6926 17.8235 18.6212 17.9868C18.5498 18.1502 18.4451 18.2968 18.3137 18.4173C18.1824 18.5378 18.0273 18.6295 17.8585 18.6866C17.6896 18.7437 17.5107 18.7649 17.3332 18.7489C15.3638 18.5349 13.4721 17.8619 11.81 16.7841C10.2636 15.8014 8.95261 14.4904 7.96999 12.9441C6.88838 11.2744 6.21527 9.3735 6.00519 7.39526C5.9892 7.21828 6.01023 7.03991 6.06695 6.8715C6.12368 6.70309 6.21484 6.54834 6.33464 6.4171C6.45445 6.28586 6.60027 6.181 6.76282 6.1092C6.92537 6.0374 7.10109 6.00023 7.27879 6.00006H9.19879C9.50939 5.99701 9.8105 6.10699 10.046 6.30952C10.2815 6.51205 10.4353 6.79331 10.4788 7.10086C10.5598 7.7153 10.7101 8.31861 10.9268 8.89926C11.0129 9.12833 11.0315 9.37729 10.9805 9.61663C10.9295 9.85596 10.8109 10.0757 10.6388 10.2497L9.82599 11.0625C10.7371 12.6647 12.0637 13.9914 13.666 14.9025L14.4788 14.0897C14.6528 13.9176 14.8725 13.799 15.1118 13.748C15.3512 13.6969 15.6001 13.7156 15.8292 13.8017C16.4098 14.0183 17.0132 14.1686 17.6276 14.2497C17.9385 14.2935 18.2224 14.4501 18.4254 14.6897C18.6283 14.9292 18.7362 15.235 18.7284 15.5489Z" stroke="#487153" stroke-width="1.2" stroke-linecap="round" stroke-linejoin="round"/>
</svg>
