<svg width="10" height="11" viewBox="0 0 10 11" fill="none" xmlns="http://www.w3.org/2000/svg">
<path d="M4.90196 0.598145C2.19608 0.598145 0 2.79422 0 5.50011C0 8.20599 2.19608 10.4021 4.90196 10.4021C7.60785 10.4021 9.80392 8.20599 9.80392 5.50011C9.80392 2.79422 7.60785 0.598145 4.90196 0.598145ZM4.90196 9.42168C2.7402 9.42168 0.980392 7.66187 0.980392 5.50011C0.980392 3.33834 2.7402 1.57854 4.90196 1.57854C7.06373 1.57854 8.82353 3.33834 8.82353 5.50011C8.82353 7.66187 7.06373 9.42168 4.90196 9.42168ZM6.80392 3.68148L3.92157 6.56383L3 5.64226C2.90835 5.55061 2.78403 5.49912 2.65441 5.49912C2.52479 5.49912 2.40048 5.55061 2.30882 5.64226C2.21717 5.73392 2.16568 5.85823 2.16568 5.98785C2.16568 6.11747 2.21717 6.24178 2.30882 6.33344L3.57843 7.60305C3.76961 7.79423 4.07843 7.79423 4.26961 7.60305L7.5 4.37266C7.54544 4.32731 7.5815 4.27344 7.6061 4.21414C7.6307 4.15484 7.64336 4.09127 7.64336 4.02707C7.64336 3.96287 7.6307 3.8993 7.6061 3.84C7.5815 3.7807 7.54544 3.72683 7.5 3.68148C7.30883 3.4903 6.9951 3.4903 6.80392 3.68148Z" fill="#12B76A"/>
</svg>
