<svg viewBox="0 0 16 15" fill="none" xmlns="http://www.w3.org/2000/svg">
<path d="M7.61948 13.8426H14.6199M11.0232 1.10347C11.3329 0.793829 11.7528 0.619873 12.1907 0.619873C12.6286 0.619873 13.0486 0.793829 13.3582 1.10347C13.6679 1.41311 13.8418 1.83308 13.8418 2.27098C13.8418 2.70888 13.6679 3.12885 13.3582 3.43849L4.01662 12.7809C3.83157 12.9659 3.60283 13.1013 3.35158 13.1745L1.11768 13.8263C1.05075 13.8458 0.979801 13.847 0.912263 13.8297C0.844726 13.8124 0.783081 13.7772 0.733782 13.7279C0.684484 13.6786 0.649344 13.617 0.632041 13.5495C0.614738 13.4819 0.615908 13.411 0.635429 13.344L1.28724 11.1101C1.36053 10.8592 1.49589 10.6307 1.68082 10.4459L11.0232 1.10347Z" stroke="currentColor" stroke-width="1.23963" stroke-linecap="round" stroke-linejoin="round"/>
</svg>
