<svg width="24" height="24" viewBox="0 0 24 24" fill="none" xmlns="http://www.w3.org/2000/svg">
<path d="M11.5 4.59961C14.5994 4.59961 17.4004 6.96799 17.4004 10.668C17.4003 11.8056 16.9612 13.0985 16.0068 14.5605C15.0537 16.0206 13.6075 17.6155 11.6504 19.3457C11.5882 19.3997 11.5014 19.4136 11.4268 19.3867L11.3574 19.3457C9.39625 17.6155 7.94825 16.0206 6.99414 14.5605C6.03879 13.0986 5.59973 11.8056 5.59961 10.668C5.59961 6.96799 8.40064 4.59961 11.5 4.59961ZM11.5 8.27832C10.2745 8.27832 9.2754 9.27952 9.27539 10.5049C9.27539 11.7303 10.2745 12.7314 11.5 12.7314C12.7255 12.7314 13.7246 11.7303 13.7246 10.5049C13.7246 9.27952 12.7255 8.27832 11.5 8.27832Z" stroke="#487153" stroke-width="1.2"/>
</svg>
