<svg width="10" height="11" viewBox="0 0 10 11" fill="none" xmlns="http://www.w3.org/2000/svg">
<path d="M4.90196 0.598145C2.19608 0.598145 0 2.79422 0 5.50011C0 8.20599 2.19608 10.4021 4.90196 10.4021C7.60785 10.4021 9.80392 8.20599 9.80392 5.50011C9.80392 2.79422 7.60785 0.598145 4.90196 0.598145ZM0.980392 5.50011C0.980392 3.33344 2.73529 1.57854 4.90196 1.57854C5.80883 1.57854 6.64216 1.88736 7.30392 2.40697L1.80882 7.90207C1.27041 7.21737 0.978546 6.37114 0.980392 5.50011ZM4.90196 9.42168C3.9951 9.42168 3.16177 9.11285 2.5 8.59324L7.9951 3.09815C8.53352 3.78285 8.82538 4.62907 8.82353 5.50011C8.82353 7.66677 7.06863 9.42168 4.90196 9.42168Z" fill="#F04438"/>
</svg>
